<?xml version="1.0" encoding="UTF-8" standalone="no"?>
<!DOCTYPE svg PUBLIC "-//W3C//DTD SVG 1.1//EN" "http://www.w3.org/Graphics/SVG/1.1/DTD/svg11.dtd">
<svg xmlns="http://www.w3.org/2000/svg" version="1.1" viewBox="0.00 0.00 209.00 306.00">
<path fill="#ffffff" d="
  M 18.40 0.00
  L 191.00 0.00
  Q 206.39 2.77 209.00 18.12
  L 209.00 288.00
  Q 206.23 303.38 190.88 306.00
  L 145.20 306.00
  Q 144.42 292.81 133.49 288.52
  Q 129.65 287.01 125.18 287.08
  Q 105.24 287.37 84.38 287.10
  Q 77.71 287.02 74.09 288.60
  C 68.27 291.14 63.83 296.50 63.09 303.00
  Q 62.92 304.50 62.74 306.00
  L 18.30 306.00
  Q 5.79 303.62 1.88 293.10
  Q 0.48 289.34 0.48 285.12
  Q 0.54 151.98 0.48 20.78
  C 0.47 9.78 7.25 2.11 18.40 0.00
  Z"
/>
</svg>
